<?xml version="1.0" encoding="UTF-8" standalone="no"?>
<!-- Created with Inkscape (http://www.inkscape.org/) -->

<svg
   width="183mm"
   height="42mm"
   viewBox="0 0 183 42"
   version="1.1"
   id="svg1"
   xmlns="http://www.w3.org/2000/svg"
   xmlns:svg="http://www.w3.org/2000/svg">
  <defs
     id="defs1" />
  <g
     id="layer1">
    <path
       id="path2"
       style="display:inline;fill:#5fa8d1;stroke-width:0.264583"
       d="m 80.838207,1.6655538 -26.21649,0.00413 -6.84506,27.9926072 c -0.38564,1.593799 1.02777,2.557001 2.66754,2.564701 1.94838,0.0089 2.2446,0.01218 3.74396,0.01964 L 53.316887,11.36057 h 6.83369 l 1.34307,17.244942 11.82926,-16.917314 h 1.90996 L 60.910227,32.28229 c 9.33072,0.05709 1.47723,0.05056 16.25585,0.07028 l 6.67453,-28.3279872 c 0.26814,-1.134836 -1.83632,-2.359031 -3.0024,-2.359029 z m -3.67833,10.0226442 c 0.58109,0 1.03146,0.468753 1.03146,1.031979 v 0.0057 c 0,0.563246 -0.45641,1.037663 -1.03146,1.037663 -0.58111,0 -1.03146,-0.468107 -1.03146,-1.031462 v -0.0062 c 0,-0.563292 0.45621,-1.037663 1.03146,-1.037663 z m 0,0.112655 c -0.51598,0 -0.91312,0.420987 -0.91312,0.925008 v 0.0057 c 0,0.504085 0.39127,0.919323 0.91312,0.919323 0.51578,0 0.91312,-0.421032 0.91312,-0.925008 v -0.0057 c 0,-0.503956 -0.39148,-0.919324 -0.91312,-0.919323 z m -0.48007,0.356051 h 0.5333 c 0.30841,0 0.49816,0.130295 0.49816,0.379305 0,0.171834 -0.0828,0.278715 -0.21911,0.337963 l 0.25477,0.373621 h -0.41497 l -0.20774,-0.308508 h -0.07699 v 0.308508 h -0.36742 z m 0.36742,0.302307 v 0.213423 h 0.15399 c 0.0889,0 0.14263,-0.03581 0.14263,-0.10697 0,-0.07116 -0.04758,-0.106453 -0.13643,-0.106453 z" />
    <path
       d="M 10.249186,16.856643 7.1131348,31.566984 H 2.5545456 l 3.125274,-14.710341 z m 15.486271,2.952845 -4.644804,1.508753 q -0.118545,-0.829814 -0.614278,-1.217779 -0.646608,-0.50651 -1.605744,-0.50651 -0.937582,0 -1.605744,0.431072 -0.592724,0.377189 -0.592724,0.894475 0,0.409519 0.463402,0.678939 0.409519,0.23709 1.271663,0.431072 0.129322,0.03233 1.745843,0.334081 2.155361,0.409519 3.179158,1.174672 0.689716,0.517287 0.969913,1.454869 0.129321,0.452626 0.129321,0.959136 0,2.338567 -2.241575,4.138294 -2.284683,1.842834 -6.024235,1.842834 -2.866631,0 -4.278393,-0.722046 Q 10.583267,30.553964 9.9797656,29.530168 9.678015,29.012881 9.4732557,27.967531 l 4.9896613,-1.239333 q 0.183206,0.700492 0.47418,0.991466 0.700492,0.711269 2.176915,0.711269 1.099234,0 1.659628,-0.398741 0.452626,-0.323305 0.452626,-0.808261 0,-0.441849 -0.528064,-0.732823 -0.366411,-0.204759 -1.228556,-0.377188 -0.107768,-0.03233 -1.562637,-0.290974 -1.357877,-0.237089 -2.435558,-0.937582 -1.616521,-1.034573 -1.616521,-2.909738 0,-0.980689 0.53884,-1.993709 1.842834,-3.491685 7.435997,-3.491685 3.459355,0 4.774125,1.185448 0.678939,0.603502 0.948359,1.303994 0.107768,0.290974 0.183206,0.829814 z m 11.250985,-3.319256 q 2.53255,0 4.267615,0.883698 2.823524,1.465646 2.823524,4.472375 0,2.317013 -0.894475,4.547812 -1.28244,3.146828 -4.806456,4.634027 -2.123031,0.905252 -4.838786,0.905252 -4.192178,0 -6.088896,-2.209246 -1.110011,-1.293217 -1.110011,-3.168381 0,-2.263129 0.916029,-4.515482 1.28244,-3.157604 4.795679,-4.644804 2.123031,-0.905251 4.935777,-0.905251 z m -0.829814,3.534792 q -2.510996,0 -3.804213,2.166138 -0.937582,1.562637 -0.937582,3.092944 0,3.125274 2.920515,3.125274 2.435558,0 3.739552,-2.166138 0.937582,-1.573414 0.937582,-3.103721 0,-3.114497 -2.855854,-3.114497 z"
       id="text1"
       style="font-size:22.0709px;font-family:URWGroteskWid;-inkscape-font-specification:URWGroteskWid;stroke-width:0.295592"
       aria-label="ISO" />
    <path
       d="m 108.11792,27.825925 q 1.08846,0 1.68118,0.678939 0.36641,0.420296 0.36641,1.04535 0,0.948359 -0.73282,1.681182 -0.90525,0.916029 -2.26313,0.916029 -1.11001,0 -1.70274,-0.678939 -0.36641,-0.420295 -0.36641,-1.04535 0,-0.948359 0.73283,-1.681182 0.89447,-0.916029 2.28468,-0.916029 z m 17.53386,-3.13605 -4.55859,1.131564 q 0.10777,-0.50651 0.10777,-0.797483 0,-1.239333 -1.22855,-1.239333 -1.45487,0 -2.22003,1.627298 -0.67894,1.476422 -0.67894,2.737309 0,1.454868 1.37944,1.454868 1.48719,0 2.19846,-2.12303 l 4.26762,1.04535 q -0.73282,1.422538 -1.63808,2.123031 -1.92904,1.508753 -5.64704,1.508753 -2.62954,0 -3.81499,-0.959136 -1.21778,-0.98069 -1.21778,-2.995952 0,-1.950602 0.98069,-3.631784 1.04535,-1.778173 2.86663,-2.618764 1.47642,-0.689716 3.99819,-0.689716 2.3709,0 3.52402,0.592724 1.08846,0.560394 1.46565,1.508753 0.1832,0.441849 0.21553,1.325548 z m 8.68611,-3.427025 q 3.21149,0 4.47237,1.034574 1.07769,0.894475 1.07769,2.748085 0,2.241576 -1.20701,4.127517 -1.36865,2.144585 -3.73955,2.651095 -1.58419,0.334081 -3.67489,0.334081 -3.56712,0 -4.67713,-1.368655 -0.68972,-0.851368 -0.68972,-2.209245 0,-1.778173 0.71127,-3.448578 0.65738,-1.530307 1.79973,-2.392451 1.28244,-0.969913 2.89896,-1.239333 1.35787,-0.23709 3.02828,-0.23709 z m -0.87292,2.985176 q -1.4872,0 -2.26313,1.099234 -0.64661,0.926805 -0.64661,2.101477 0,1.702736 1.82128,1.702736 1.45487,0 2.24158,-1.099235 0.64661,-0.916028 0.64661,-2.101477 0,-1.702735 -1.79973,-1.702735 z m 10.4535,3.577899 q 1.08846,0 1.68118,0.678939 0.36641,0.420296 0.36641,1.04535 0,0.948359 -0.73282,1.681182 -0.90525,0.916029 -2.26313,0.916029 -1.11001,0 -1.70273,-0.678939 -0.36642,-0.420295 -0.36642,-1.04535 0,-0.948359 0.73283,-1.681182 0.89447,-0.916029 2.28468,-0.916029 z m 12.37177,4.030526 0.29098,-1.357878 q -1.17468,0.872922 -1.9075,1.185449 -1.11001,0.463403 -2.32779,0.463403 -1.93982,0 -3.03906,-0.894475 -0.77593,-0.635832 -0.77593,-1.82128 0,-0.689716 0.30175,-2.090701 l 1.22856,-5.787145 h 4.26761 l -0.94836,4.472375 q -0.17242,0.797483 -0.17242,1.3471 0,0.7436 0.6466,1.045351 0.47418,0.215536 1.08846,0.215536 0.82982,0 1.49798,-0.420296 0.62505,-0.398741 0.86214,-1.207002 0.0431,-0.140098 0.21554,-0.916029 l 0.95913,-4.537035 h 4.26762 l -2.18769,10.302627 z m 14.24694,-15.453941 -2.01526,9.472813 4.28917,-4.321499 h 5.19442 l -4.72024,4.35383 3.21149,5.948797 h -6.18589 l -2.05837,-4.698688 -1.00224,4.698688 h -4.26762 l 3.28693,-15.453941 z"
       id="text1-4"
       style="font-size:22.0709px;font-family:URWGroteskWid;-inkscape-font-specification:URWGroteskWid;stroke-width:0.295592"
       aria-label=".co.uk" />
    <path
       d="m 85.311573,21.376777 q -1.226436,-0.880518 -1.619524,-1.55663 -0.471706,-0.801901 -0.471706,-1.761036 0,-1.82393 0.943412,-3.474902 1.163542,-2.012612 3.836543,-3.018918 2.515765,-0.959136 5.69192,-0.959136 3.144707,0 5.251661,0.927688 2.625831,1.179266 2.625831,3.726478 0,2.012613 -0.99058,3.55352 -0.51888,0.833347 -1.27361,1.430841 -0.581771,0.455983 -1.792483,1.132095 1.116371,0.471706 1.6038,0.927688 1.069203,1.037754 1.069203,2.704449 0,1.635247 -0.801902,3.207601 -1.24216,2.421424 -3.962331,3.632137 -2.421425,1.084924 -6.44665,1.084924 -3.522072,0 -5.393173,-0.770454 -3.066089,-1.273606 -3.066089,-4.434037 0,-2.217018 1.28933,-3.978054 0.770453,-1.053477 1.855377,-1.666695 0.5346,-0.314471 1.650971,-0.707559 z m 7.405785,-6.17935 q -1.886824,0 -2.861683,0.911965 -0.691836,0.676112 -0.691836,1.50946 0,0.739006 0.550324,1.210712 0.723283,0.613218 2.04406,0.613218 1.933995,0 2.971748,-1.084924 0.660388,-0.676112 0.660388,-1.493736 0,-0.723283 -0.58177,-1.132095 -0.739007,-0.5346 -2.091231,-0.5346 z m -1.729589,8.349198 q -2.342806,0 -3.459177,1.0692 -0.770454,0.723283 -0.770454,1.650971 0,0.849071 0.75473,1.383672 0.927689,0.676112 2.437148,0.676112 2.075507,0 3.349113,-1.132095 0.864795,-0.75473 0.864795,-1.761036 0,-0.8019 -0.644665,-1.257883 -0.927689,-0.628941 -2.53149,-0.628941 z"
       id="text2"
       style="font-size:32.2018px;font-family:URWGroteskWid;-inkscape-font-specification:URWGroteskWid;stroke-width:0.377364"
       aria-label="8" />
    <path
       id="path94"
       d="m 164.82108,40.203854 1.19234,-5.077957 h -1.48532 l -1.19254,5.077957 z"
       style="fill:#000000;fill-opacity:1;fill-rule:nonzero;stroke:none;stroke-width:0.474075" />
    <path
       id="path95"
       d="m 116.30919,38.933524 -1.09848,-0.636161 c -0.39495,0.482561 -0.64531,0.723912 -1.10663,0.723912 -0.63522,0 -0.75388,-0.621511 -0.5796,-1.404068 0.18076,-0.811521 0.57746,-1.403876 1.18997,-1.403876 0.48403,0 0.59866,0.299804 0.68186,0.775111 l 1.44328,-0.504604 c -0.14783,-0.965122 -0.54154,-1.506327 -1.84225,-1.506327 -1.42181,0 -2.6417,0.994609 -3.00806,2.639696 -0.33716,1.513722 0.25145,2.639839 1.82438,2.639839 1.25545,0 1.99026,-0.65081 2.49553,-1.323522"
       style="fill:#000000;fill-opacity:1;fill-rule:nonzero;stroke:none;stroke-width:0.474075" />
    <path
       id="path96"
       d="m 121.89821,37.609955 c 0.37948,-1.703684 -0.41956,-2.632444 -1.85625,-2.632444 -1.43697,0 -2.66804,0.943409 -3.04754,2.647093 -0.3795,1.703729 0.41941,2.632442 1.85633,2.632442 1.43687,0 2.66796,-0.943361 3.04746,-2.647091 z m -1.5234,0.01465 c -0.20518,0.921364 -0.6437,1.396672 -1.23364,1.396672 -0.58994,0 -0.82873,-0.489957 -0.6234,-1.411321 0.20523,-0.921316 0.64384,-1.396624 1.23377,-1.396624 0.5898,0 0.8285,0.489955 0.62327,1.411273"
       style="fill:#000000;fill-opacity:1;fill-rule:nonzero;stroke:none;stroke-width:0.474075" />
    <path
       id="path97"
       d="m 126.82497,40.176548 1.14011,-5.118539 h -1.40672 l -0.31114,1.396673 c -0.0927,0.416711 -0.23661,1.096819 -0.24927,1.323522 -0.0664,-0.212054 -0.38366,-0.892162 -0.55551,-1.206615 l -0.82755,-1.51358 h -1.29332 l -1.14011,5.118539 h 1.40673 l 0.34844,-1.564731 c 0.0929,-0.416854 0.23694,-1.096867 0.24955,-1.32357 0.0856,0.226703 0.39282,0.884766 0.55718,1.199268 l 0.88681,1.689033 z"
       style="fill:#000000;fill-opacity:1;fill-rule:nonzero;stroke:none;stroke-width:0.474075" />
    <path
       id="path98"
       d="m 132.97633,36.293828 0.2754,-1.235819 h -4.4317 l -0.27526,1.235819 h 1.48225 l -0.86485,3.88272 h 1.46716 l 0.86477,-3.88272 z"
       style="fill:#000000;fill-opacity:1;fill-rule:nonzero;stroke:none;stroke-width:0.474075" />
    <path
       id="path99"
       d="m 137.25443,40.176548 -0.78075,-5.118539 h -1.48224 l -3.06101,5.118539 h 1.57312 l 0.48769,-0.899415 h 1.58801 l 0.0871,0.899415 z m -1.77977,-2.025437 h -0.87723 l 0.17323,-0.336356 c 0.33408,-0.650811 0.48066,-0.935966 0.62539,-1.279717 -0.008,0.343751 0.0121,0.621511 0.0552,1.279717 z"
       style="fill:#000000;fill-opacity:1;fill-rule:nonzero;stroke:none;stroke-width:0.474075" />
    <path
       id="path100"
       d="m 139.54635,40.176548 1.1401,-5.118539 h -1.49741 l -1.14011,5.118539 z"
       style="fill:#000000;fill-opacity:1;fill-rule:nonzero;stroke:none;stroke-width:0.474075" />
    <path
       id="path101"
       d="m 145.30171,40.176548 1.14,-5.118539 h -1.40657 l -0.31114,1.396673 c -0.0929,0.416711 -0.23661,1.096819 -0.24927,1.323522 -0.0664,-0.212054 -0.38366,-0.892162 -0.55566,-1.206615 l -0.82755,-1.51358 h -1.29317 l -1.14011,5.118539 h 1.40658 l 0.34859,-1.564731 c 0.0929,-0.416854 0.2368,-1.096867 0.24955,-1.32357 0.0855,0.226703 0.39268,0.884766 0.55718,1.199268 l 0.88666,1.689033 z"
       style="fill:#000000;fill-opacity:1;fill-rule:nonzero;stroke:none;stroke-width:0.474075" />
    <path
       id="path102"
       d="m 150.48249,40.176548 0.26554,-1.191824 h -2.65449 l 0.19556,-0.877513 h 1.56529 l 0.26217,-1.177222 h -1.56531 l 0.15148,-0.680108 h 2.60153 l 0.26538,-1.191872 h -4.05353 l -1.1401,5.118539 z"
       style="fill:#000000;fill-opacity:1;fill-rule:nonzero;stroke:none;stroke-width:0.474075" />
    <path
       id="path103"
       d="m 155.95806,40.176548 -0.62379,-1.952335 c 0.63925,-0.256 1.11564,-0.731308 1.28669,-1.499024 0.27041,-1.213727 -0.45298,-1.66718 -1.69307,-1.66718 h -2.36715 l -1.14015,5.118539 h 1.44452 l 0.38432,-1.725584 h 0.5898 l 0.47786,1.725584 z m -0.8047,-3.414808 c -0.0814,0.365653 -0.3162,0.570311 -0.79255,0.570311 h -0.86221 l 0.24927,-1.11872 h 0.88492 c 0.46117,0 0.59221,0.226702 0.52057,0.548409"
       style="fill:#000000;fill-opacity:1;fill-rule:nonzero;stroke:none;stroke-width:0.474075" />
    <path
       id="path104"
       d="m 170.31518,40.257046 1.20192,-5.118634 h -1.40658 l -0.328,1.396626 c -0.0978,0.416853 -0.25013,1.096818 -0.26545,1.323521 -0.0637,-0.212053 -0.3729,-0.892019 -0.54102,-1.206473 l -0.80924,-1.513674 h -1.29317 l -1.20207,5.118634 h 1.40672 l 0.36741,-1.564873 c 0.0978,-0.41676 0.25007,-1.096868 0.26552,-1.32357 0.0828,0.226702 0.38207,0.884908 0.54268,1.199268 l 0.86623,1.689175 z"
       style="fill:#000000;fill-opacity:1;fill-rule:nonzero;stroke:none;stroke-width:0.474075" />
    <path
       id="path105"
       d="m 176.49333,37.990163 0.14597,-0.62156 h -2.32929 l -0.24902,1.060315 h 0.96042 v 0 c -0.14298,0.351006 -0.41239,0.628908 -1.03244,0.628908 -0.68068,0 -0.92145,-0.424108 -0.68267,-1.440619 0.19053,-0.811662 0.56401,-1.403876 1.25232,-1.403876 0.50674,0 0.6566,0.263253 0.72757,0.701867 l 1.44958,-0.504464 c -0.15332,-0.957867 -0.55596,-1.433223 -1.87947,-1.433223 -1.60323,0 -2.72977,1.126023 -3.08533,2.639696 -0.3932,1.674575 0.37092,2.639839 1.82291,2.639839 1.5352,0 2.55611,-0.80441 2.89945,-2.266883"
       style="fill:#000000;fill-opacity:1;fill-rule:nonzero;stroke:none;stroke-width:0.474075" />
    <path
       id="path106"
       d="m 163.02703,35.137322 -1.64082,1.881887 1.40701,3.237837 h -1.73801 l -1.0834,-2.540235 2.16505,-2.579489 z"
       style="fill:#000000;fill-opacity:1;fill-rule:nonzero;stroke:none;stroke-width:0.474075" />
    <path
       id="path107"
       d="m 159.2744,40.233816 h -2.51809 l 0.86409,-3.42813 h 1.96869 z"
       style="fill:#000000;fill-opacity:1;fill-rule:nonzero;stroke:none;stroke-width:0.474075" />
    <path
       id="path108"
       d="m 159.39425,35.68962 -0.15389,-0.552155 -0.41026,0.552155 -0.2122,-0.552155 -0.35233,0.552155 -0.46511,-0.552155 -0.0492,1.104499 h 0.97977 0.97938 l 0.34741,-1.104499 z"
       style="fill:#000000;fill-opacity:1;fill-rule:nonzero;stroke:none;stroke-width:0.474075" />
    <path
       id="path109"
       d="m 159.66381,36.502516 h -1.95917 l 0.0255,-0.14246 h 1.95916 z"
       style="fill:#000000;fill-opacity:1;fill-rule:nonzero;stroke:none;stroke-width:0.474075" />
  </g>
</svg>
